<svg width="116" height="34" viewBox="0 0 116 34" fill="none" xmlns="http://www.w3.org/2000/svg">
<path d="M2.75 27.395C2 27.395 1.35417 27.1408 0.8125 26.6325C0.270833 26.1242 0 25.495 0 24.745V10.795C0 10.1617 0.195833 9.59499 0.5875 9.09499C0.979167 8.59499 1.49167 8.27833 2.125 8.14499L12 6.19499V22.195L2.525 24.095C2.375 24.1283 2.25 24.2075 2.15 24.3325C2.05 24.4575 2 24.595 2 24.745C2 24.9283 2.075 25.0825 2.225 25.2075C2.375 25.3325 2.55 25.395 2.75 25.395H14V9.39499H16V27.395H2.75ZM5 21.57L10 20.595V8.64499L5 9.61999V21.57ZM3 21.97V10.02L2.625 10.095C2.44167 10.1283 2.29167 10.2075 2.175 10.3325C2.05833 10.4575 2 10.6117 2 10.795V22.22C2.08333 22.1867 2.17083 22.1575 2.2625 22.1325C2.35417 22.1075 2.44167 22.0867 2.525 22.07L3 21.97ZM2 10.17V22.22V10.17Z" fill="#070235"/>
<path d="M25.4023 22.3789V23H20.2344V22.3789L22.0156 22.0625L27.3711 7.15625H29.5977L35.1641 22.0625L37.1562 22.3789V23H30.5117V22.3789L32.6211 22.0625L31.0625 17.5273H24.875L23.293 22.0625L25.4023 22.3789ZM27.9219 8.84375L25.2266 16.4727H30.6992L27.9219 8.84375ZM40.6461 23.2344C39.8961 23.2344 39.3355 23.0117 38.9645 22.5664C38.5934 22.1211 38.4078 21.4961 38.4078 20.6914V12.9688H36.9664V12.4414L38.4312 11.9844L39.6148 9.48828H40.3531V11.9844H42.8727V12.9688H40.3531V20.4805C40.3531 20.9883 40.4684 21.3711 40.6988 21.6289C40.9293 21.8867 41.232 22.0156 41.607 22.0156C41.8961 22.0156 42.1832 21.9961 42.4684 21.957C42.7535 21.918 43.0172 21.875 43.2594 21.8281V22.5898C43.1422 22.668 42.9879 22.7461 42.7965 22.8242C42.6051 22.9023 42.3941 22.9707 42.1637 23.0293C41.9332 23.0879 41.6891 23.1367 41.4312 23.1758C41.1734 23.2148 40.9117 23.2344 40.6461 23.2344ZM46.6203 11.1172C46.6203 11.2266 46.6184 11.3594 46.6145 11.5156C46.6105 11.6719 46.6066 11.834 46.6027 12.002C46.5988 12.1699 46.591 12.332 46.5793 12.4883C46.5676 12.6445 46.5539 12.7734 46.5383 12.875C46.757 12.75 47.0227 12.6172 47.3352 12.4766C47.6477 12.3359 47.9738 12.207 48.3137 12.0898C48.6535 11.9727 48.9934 11.877 49.3332 11.8027C49.673 11.7285 49.9836 11.6914 50.2648 11.6914C50.6867 11.6914 51.0734 11.75 51.425 11.8672C51.7766 11.9844 52.0793 12.1719 52.3332 12.4297C52.5871 12.6875 52.7863 13.0234 52.9309 13.4375C53.0754 13.8516 53.1477 14.3516 53.1477 14.9375V22.1797L54.4836 22.4727V23H49.7375V22.4727L51.2023 22.1797V15.0781C51.2023 14.4297 51.0441 13.9316 50.7277 13.584C50.4113 13.2363 49.9211 13.0625 49.257 13.0625C49.0383 13.0625 48.8059 13.0742 48.5598 13.0977C48.3137 13.1211 48.0695 13.1484 47.8273 13.1797C47.5852 13.2109 47.3586 13.248 47.1477 13.291C46.9367 13.334 46.7609 13.3711 46.6203 13.4023V22.1797L48.1086 22.4727V23H43.2805V22.4727L44.675 22.1797V7.15625L43.0344 6.875V6.34766H46.6203V11.1172ZM57.2469 17.457V17.668C57.2469 18.2383 57.2879 18.7852 57.3699 19.3086C57.452 19.832 57.616 20.2949 57.8621 20.6973C58.1082 21.0996 58.4539 21.4199 58.8992 21.6582C59.3445 21.8965 59.9305 22.0156 60.657 22.0156C60.8914 22.0156 61.1375 22.0059 61.3953 21.9863C61.6531 21.9668 61.9109 21.9414 62.1688 21.9102C62.4266 21.8789 62.6766 21.8438 62.9188 21.8047C63.1609 21.7656 63.3836 21.7227 63.5867 21.6758V22.332C63.407 22.4492 63.1902 22.5605 62.9363 22.666C62.6824 22.7715 62.4031 22.8672 62.0984 22.9531C61.7938 23.0391 61.4695 23.1074 61.1258 23.1582C60.782 23.209 60.4344 23.2344 60.0828 23.2344C59.1688 23.2344 58.3973 23.1094 57.7684 22.8594C57.1395 22.6094 56.6297 22.2383 56.2391 21.7461C55.8484 21.2539 55.5672 20.6445 55.3953 19.918C55.2234 19.1914 55.1375 18.3555 55.1375 17.4102C55.1375 15.4883 55.5398 14.0547 56.3445 13.1094C57.1492 12.1641 58.2977 11.6914 59.7898 11.6914C60.3758 11.6914 60.9246 11.7695 61.4363 11.9258C61.948 12.082 62.3953 12.3438 62.7781 12.7109C63.1609 13.0781 63.4637 13.5703 63.6863 14.1875C63.909 14.8047 64.0203 15.5742 64.0203 16.4961V17.457H57.2469ZM59.7898 12.6289C59.3523 12.6289 58.9754 12.7207 58.659 12.9043C58.3426 13.0879 58.0809 13.3477 57.8738 13.6836C57.6668 14.0195 57.5145 14.4277 57.4168 14.9082C57.3191 15.3887 57.2703 15.9258 57.2703 16.5195H61.9813C61.9813 15.9258 61.948 15.3887 61.8816 14.9082C61.8152 14.4277 61.698 14.0195 61.5301 13.6836C61.3621 13.3477 61.1375 13.0879 60.8563 12.9043C60.575 12.7207 60.2195 12.6289 59.7898 12.6289ZM68.0492 12.875C68.268 12.75 68.5277 12.6172 68.8285 12.4766C69.1293 12.3359 69.4437 12.207 69.7719 12.0898C70.1 11.9727 70.4281 11.877 70.7562 11.8027C71.0844 11.7285 71.3891 11.6914 71.6703 11.6914C72.0922 11.6914 72.4789 11.75 72.8305 11.8672C73.182 11.9844 73.4848 12.1719 73.7387 12.4297C73.9926 12.6875 74.1918 13.0234 74.3363 13.4375C74.4809 13.8516 74.5531 14.3516 74.5531 14.9375V22.1797L75.8891 22.4727V23H71.143V22.4727L72.6078 22.1797V15.1484C72.6078 14.5 72.4496 13.9902 72.1332 13.6191C71.8168 13.248 71.3266 13.0625 70.6625 13.0625C70.4437 13.0625 70.2133 13.0742 69.9711 13.0977C69.7289 13.1211 69.4906 13.1484 69.2562 13.1797C69.0219 13.2109 68.8012 13.248 68.5941 13.291C68.3871 13.334 68.2133 13.3711 68.0727 13.4023V22.1797L69.5609 22.4727V23H64.8031V22.4727L66.1273 22.1797V12.8047L64.8031 12.5117V11.9844H67.9437L68.0492 12.875ZM78.6992 17.457V17.668C78.6992 18.2383 78.7402 18.7852 78.8223 19.3086C78.9043 19.832 79.0684 20.2949 79.3145 20.6973C79.5605 21.0996 79.9062 21.4199 80.3516 21.6582C80.7969 21.8965 81.3828 22.0156 82.1094 22.0156C82.3438 22.0156 82.5898 22.0059 82.8477 21.9863C83.1055 21.9668 83.3633 21.9414 83.6211 21.9102C83.8789 21.8789 84.1289 21.8438 84.3711 21.8047C84.6133 21.7656 84.8359 21.7227 85.0391 21.6758V22.332C84.8594 22.4492 84.6426 22.5605 84.3887 22.666C84.1348 22.7715 83.8555 22.8672 83.5508 22.9531C83.2461 23.0391 82.9219 23.1074 82.5781 23.1582C82.2344 23.209 81.8867 23.2344 81.5352 23.2344C80.6211 23.2344 79.8496 23.1094 79.2207 22.8594C78.5918 22.6094 78.082 22.2383 77.6914 21.7461C77.3008 21.2539 77.0195 20.6445 76.8477 19.918C76.6758 19.1914 76.5898 18.3555 76.5898 17.4102C76.5898 15.4883 76.9922 14.0547 77.7969 13.1094C78.6016 12.1641 79.75 11.6914 81.2422 11.6914C81.8281 11.6914 82.377 11.7695 82.8887 11.9258C83.4004 12.082 83.8477 12.3438 84.2305 12.7109C84.6133 13.0781 84.916 13.5703 85.1387 14.1875C85.3613 14.8047 85.4727 15.5742 85.4727 16.4961V17.457H78.6992ZM81.2422 12.6289C80.8047 12.6289 80.4277 12.7207 80.1113 12.9043C79.7949 13.0879 79.5332 13.3477 79.3262 13.6836C79.1191 14.0195 78.9668 14.4277 78.8691 14.9082C78.7715 15.3887 78.7227 15.9258 78.7227 16.5195H83.4336C83.4336 15.9258 83.4004 15.3887 83.334 14.9082C83.2676 14.4277 83.1504 14.0195 82.9824 13.6836C82.8145 13.3477 82.5898 13.0879 82.3086 12.9043C82.0273 12.7207 81.6719 12.6289 81.2422 12.6289ZM89.3727 19.8594C89.3727 20.5078 89.5191 21.0059 89.8121 21.3535C90.1051 21.7012 90.5836 21.875 91.2477 21.875C91.6852 21.875 92.1383 21.8457 92.607 21.7871C93.0758 21.7285 93.5289 21.6367 93.9664 21.5117V12.8047L92.3023 12.5117V11.9844H95.9V22.1797L97.2945 22.4727V23H94.0836L93.9898 22.1094C93.7633 22.2344 93.4938 22.3633 93.1813 22.4961C92.8688 22.6289 92.5426 22.75 92.2027 22.8594C91.8629 22.9688 91.5211 23.0586 91.1773 23.1289C90.8336 23.1992 90.5211 23.2344 90.2398 23.2344C89.818 23.2344 89.4352 23.1758 89.0914 23.0586C88.7477 22.9414 88.4527 22.7539 88.2066 22.4961C87.9605 22.2383 87.7691 21.9043 87.6324 21.4941C87.4957 21.084 87.4273 20.5859 87.4273 20V12.8047L86.0211 12.5117V11.9844H89.3727V19.8594ZM100.925 12.875C101.144 12.75 101.404 12.6172 101.704 12.4766C102.005 12.3359 102.316 12.207 102.636 12.0898C102.956 11.9727 103.28 11.877 103.609 11.8027C103.937 11.7285 104.241 11.6914 104.523 11.6914C105.062 11.6914 105.56 11.793 106.017 11.9961C106.474 12.1992 106.816 12.5234 107.042 12.9688C107.292 12.8281 107.593 12.6816 107.945 12.5293C108.296 12.377 108.661 12.2383 109.04 12.1133C109.419 11.9883 109.794 11.8867 110.165 11.8086C110.536 11.7305 110.87 11.6914 111.167 11.6914C111.589 11.6914 111.972 11.75 112.316 11.8672C112.659 11.9844 112.954 12.1719 113.2 12.4297C113.446 12.6875 113.638 13.0234 113.775 13.4375C113.911 13.8516 113.98 14.3516 113.98 14.9375V22.1797L115.398 22.4727V23H110.394V22.4727L112.034 22.1797V15.1484C112.034 14.5 111.888 14.002 111.595 13.6543C111.302 13.3066 110.823 13.1328 110.159 13.1328C109.956 13.1328 109.72 13.1484 109.45 13.1797C109.181 13.2109 108.911 13.2461 108.642 13.2852C108.372 13.3242 108.114 13.3691 107.868 13.4199C107.622 13.4707 107.417 13.5117 107.253 13.543C107.386 13.9648 107.452 14.4297 107.452 14.9375V22.1797L109.105 22.4727V23H103.878V22.4727L105.507 22.1797V15.1484C105.507 14.5 105.341 14.002 105.009 13.6543C104.677 13.3066 104.179 13.1328 103.515 13.1328C103.296 13.1328 103.068 13.1445 102.829 13.168C102.591 13.1914 102.357 13.2188 102.126 13.25C101.896 13.2812 101.677 13.3184 101.47 13.3613C101.263 13.4043 101.089 13.4414 100.948 13.4727V22.1797L102.601 22.4727V23H97.6086V22.4727L99.0031 22.1797V12.8047L97.6086 12.5117V11.9844H100.831L100.925 12.875Z" fill="#070235"/>
</svg>
